{
	"asset":{
		"generator":"Khronos glTF Blender I/O v3.5.30",
		"version":"2.0"
	},
	"extensionsUsed":[
		"KHR_materials_specular",
		"KHR_materials_ior"
	],
	"scene":0,
	"scenes":[
		{
			"name":"Scene",
			"nodes":[
				0,
				1
			]
		}
	],
	"nodes":[
		{
			"mesh":0,
			"name":"Cylinder",
			"translation":[
				0,
				1,
				0
			]
		},
		{
			"mesh":1,
			"name":"Plane",
			"scale":[
				14.48812484741211,
				14.48812484741211,
				14.48812484741211
			]
		}
	],
	"materials":[
		{
			"doubleSided":true,
			"extensions":{
				"KHR_materials_specular":{
					"specularColorFactor":[
						0.3764059481107095,
						0.3764059481107095,
						0.3764059481107095
					]
				},
				"KHR_materials_ior":{
					"ior":1.4500000476837158
				}
			},
			"name":"tree",
			"pbrMetallicRoughness":{
				"baseColorFactor":[
					0.03518342599272728,
					0.02439415268599987,
					0.016089998185634613,
					1
				],
				"metallicFactor":0,
				"roughnessFactor":0.658730149269104
			}
		}
	],
	"meshes":[
		{
			"name":"Cylinder",
			"primitives":[
				{
					"attributes":{
						"POSITION":0,
						"TEXCOORD_0":1,
						"NORMAL":2
					},
					"indices":3,
					"material":0
				}
			]
		},
		{
			"name":"Plane",
			"primitives":[
				{
					"attributes":{
						"POSITION":4,
						"TEXCOORD_0":5,
						"NORMAL":6
					},
					"indices":7
				}
			]
		}
	],
	"accessors":[
		{
			"bufferView":0,
			"componentType":5126,
			"count":960,
			"max":[
				2.9902734756469727,
				4.893411159515381,
				3.8843209743499756
			],
			"min":[
				-3.057373523712158,
				-1.2993566989898682,
				-3.1095821857452393
			],
			"type":"VEC3"
		},
		{
			"bufferView":1,
			"componentType":5126,
			"count":960,
			"type":"VEC2"
		},
		{
			"bufferView":2,
			"componentType":5126,
			"count":960,
			"type":"VEC3"
		},
		{
			"bufferView":3,
			"componentType":5123,
			"count":5148,
			"type":"SCALAR"
		},
		{
			"bufferView":4,
			"componentType":5126,
			"count":4,
			"max":[
				1,
				0,
				1
			],
			"min":[
				-1,
				0,
				-1
			],
			"type":"VEC3"
		},
		{
			"bufferView":5,
			"componentType":5126,
			"count":4,
			"type":"VEC2"
		},
		{
			"bufferView":6,
			"componentType":5126,
			"count":4,
			"type":"VEC3"
		},
		{
			"bufferView":7,
			"componentType":5123,
			"count":6,
			"type":"SCALAR"
		}
	],
	"bufferViews":[
		{
			"buffer":0,
			"byteLength":11520,
			"byteOffset":0,
			"target":34962
		},
		{
			"buffer":0,
			"byteLength":7680,
			"byteOffset":11520,
			"target":34962
		},
		{
			"buffer":0,
			"byteLength":11520,
			"byteOffset":19200,
			"target":34962
		},
		{
			"buffer":0,
			"byteLength":10296,
			"byteOffset":30720,
			"target":34963
		},
		{
			"buffer":0,
			"byteLength":48,
			"byteOffset":41016,
			"target":34962
		},
		{
			"buffer":0,
			"byteLength":32,
			"byteOffset":41064,
			"target":34962
		},
		{
			"buffer":0,
			"byteLength":48,
			"byteOffset":41096,
			"target":34962
		},
		{
			"buffer":0,
			"byteLength":12,
			"byteOffset":41144,
			"target":34963
		}
	],
	"buffers":[
		{
			"byteLength":41156,
			"uri":"data:application/octet-stream;base64,"
		}
	]
}
